<svg width="20" height="20" viewBox="0 0 20 20" fill="none" xmlns="http://www.w3.org/2000/svg">
<path fill-rule="evenodd" clip-rule="evenodd" d="M4.6499 2C1.8999 2 1.8999 2.208 1.8999 4.75V4.775C1.8999 5.882 1.8999 6.682 2.1709 7.02C2.4359 7.348 3.2229 7.5 4.6499 7.5C6.0769 7.5 6.8639 7.347 7.1289 7.019C7.3999 6.682 7.3999 5.882 7.3999 4.774C7.3999 2.208 7.3999 2 4.6499 2ZM4.6499 9C2.9639 9 1.6989 8.823 1.0039 7.96C0.399902 7.211 0.399902 6.189 0.399902 4.775L1.1499 4.75H0.399902C0.399902 1.88 0.580903 0.5 4.6499 0.5C8.7189 0.5 8.8999 1.88 8.8999 4.75C8.8999 6.188 8.8999 7.211 8.2959 7.96C7.6009 8.823 6.3359 9 4.6499 9Z" fill="#868E96"/>
<path fill-rule="evenodd" clip-rule="evenodd" d="M15.6499 2C12.8999 2 12.8999 2.208 12.8999 4.75V4.775C12.8999 5.882 12.8999 6.682 13.1709 7.02C13.4359 7.348 14.2229 7.5 15.6499 7.5C17.0769 7.5 17.8639 7.347 18.1289 7.019C18.3999 6.682 18.3999 5.882 18.3999 4.774C18.3999 2.208 18.3999 2 15.6499 2ZM15.6499 9C13.9639 9 12.6989 8.823 12.0039 7.96C11.3999 7.211 11.3999 6.189 11.3999 4.775L12.1499 4.75H11.3999C11.3999 1.88 11.5809 0.5 15.6499 0.5C19.7189 0.5 19.8999 1.88 19.8999 4.75C19.8999 6.188 19.8999 7.211 19.2959 7.96C18.6009 8.823 17.3359 9 15.6499 9Z" fill="#868E96"/>
<path fill-rule="evenodd" clip-rule="evenodd" d="M4.6499 13C1.8999 13 1.8999 13.208 1.8999 15.75V15.775C1.8999 16.882 1.8999 17.682 2.1709 18.02C2.4359 18.348 3.2229 18.5 4.6499 18.5C6.0769 18.5 6.8639 18.347 7.1289 18.019C7.3999 17.682 7.3999 16.882 7.3999 15.774C7.3999 13.208 7.3999 13 4.6499 13ZM4.6499 20C2.9639 20 1.6989 19.823 1.0039 18.96C0.399902 18.211 0.399902 17.189 0.399902 15.775L1.1499 15.75H0.399902C0.399902 12.88 0.580903 11.5 4.6499 11.5C8.7189 11.5 8.8999 12.88 8.8999 15.75C8.8999 17.188 8.8999 18.211 8.2959 18.96C7.6009 19.823 6.3359 20 4.6499 20Z" fill="#868E96"/>
<path fill-rule="evenodd" clip-rule="evenodd" d="M15.6499 13C12.8999 13 12.8999 13.208 12.8999 15.75V15.775C12.8999 16.882 12.8999 17.682 13.1709 18.02C13.4359 18.348 14.2229 18.5 15.6499 18.5C17.0769 18.5 17.8639 18.347 18.1289 18.019C18.3999 17.682 18.3999 16.882 18.3999 15.774C18.3999 13.208 18.3999 13 15.6499 13ZM15.6499 20C13.9639 20 12.6989 19.823 12.0039 18.96C11.3999 18.211 11.3999 17.189 11.3999 15.775L12.1499 15.75H11.3999C11.3999 12.88 11.5809 11.5 15.6499 11.5C19.7189 11.5 19.8999 12.88 19.8999 15.75C19.8999 17.188 19.8999 18.211 19.2959 18.96C18.6009 19.823 17.3359 20 15.6499 20Z" fill="#868E96"/>
</svg>
