<svg width="24" height="24" viewBox="0 0 24 24" fill="none" xmlns="http://www.w3.org/2000/svg">
<path d="M11.0162 3.20771L11.15 3.19316V3.05859V1.15H12.85V3.05859V3.19316L12.9838 3.20771C17.1081 3.65637 20.3436 6.89194 20.7923 11.0162L20.8068 11.15H20.9414H22.85V12.85H20.9414H20.8068L20.7923 12.9838C20.3436 17.1081 17.1081 20.3436 12.9838 20.7923L12.85 20.8068V20.9414V22.85H11.15V20.9414V20.8068L11.0162 20.7923C6.89194 20.3436 3.65637 17.1081 3.20771 12.9838L3.19316 12.85H3.05859H1.15V11.15H3.05859H3.19316L3.20771 11.0162C3.65637 6.89194 6.89194 3.65637 11.0162 3.20771ZM19.15 12C19.15 8.01716 15.9828 4.85 12 4.85C8.01716 4.85 4.85 8.01716 4.85 12C4.85 15.9828 8.01716 19.15 12 19.15C15.9828 19.15 19.15 15.9828 19.15 12Z" fill="black" stroke="white" stroke-width="0.3"/>
<circle cx="12" cy="12" r="4" fill="black"/>
</svg>
