<svg width="25" height="24" viewBox="0 0 25 24" fill="none" xmlns="http://www.w3.org/2000/svg">
<path d="M21.0153 9.72855L13.5153 2.6523C13.5116 2.6491 13.5082 2.64566 13.505 2.64199C13.2289 2.39086 12.869 2.25171 12.4958 2.25171C12.1225 2.25171 11.7627 2.39086 11.4866 2.64199L11.4763 2.6523L3.98469 9.72855C3.83187 9.86907 3.70989 10.0398 3.62646 10.2299C3.54303 10.42 3.49997 10.6253 3.5 10.8329V19.5001C3.5 19.8979 3.65804 20.2795 3.93934 20.5608C4.22064 20.8421 4.60218 21.0001 5 21.0001H20C20.3978 21.0001 20.7794 20.8421 21.0607 20.5608C21.342 20.2795 21.5 19.8979 21.5 19.5001V10.8329C21.5 10.6253 21.457 10.42 21.3735 10.2299C21.2901 10.0398 21.1681 9.86907 21.0153 9.72855ZM20 19.5001H5V10.8329L5.01031 10.8236L12.5 3.75011L19.9906 10.8217L20.0009 10.8311L20 19.5001Z" fill="#2382AA"/>
</svg>
